<svg width="297" height="284" viewBox="0 0 297 284" fill="none" xmlns="http://www.w3.org/2000/svg">
<path d="M124.726 10.1504C148.447 10.5434 185.183 4.70862 186.173 39.2334C186.458 49.0733 182.913 54.5962 176.238 61.4121C186.028 67.1426 190.868 74.6977 190.953 86.2431C191.103 94.0791 188.608 101.732 182.883 107.307C170.533 119.326 150.803 117.493 135.001 117.492L106.145 117.515C105.949 109.932 105.887 105.298 107.289 97.8545C109.999 84.3906 118.741 72.9169 131.003 66.7304C136.743 63.8224 143.183 61.8709 149.388 59.709C157.363 56.9305 167.793 53.7247 170.053 44.2627C171.037 39.2847 169.808 32.8517 166.068 29.2793C160.108 23.5783 151.333 24.1585 143.708 24.1425C136.328 24.1275 128.967 24.1731 121.599 24.2031L121.584 61.5439C112.397 67.0258 112.449 69.1179 106.072 76.2763L106.057 10.2304C112.229 10.1334 118.258 10.0434 124.726 10.1504ZM162.267 70.1377C142.318 76.8906 126.215 79.0537 122.183 103.45L135.418 103.555C144.478 103.61 155.128 104.314 164.013 101.782C166.103 101.186 168.278 99.6982 169.838 98.2168C178.423 90.0483 175.738 71.6651 162.618 70.1064C162.498 70.1169 162.382 70.1272 162.267 70.1377Z" fill="#04EDFB"/>
<path d="M15.6131 203.593V139.011H41.471C46.2222 139.011 50.1849 139.715 53.3594 141.124C56.5338 142.532 58.9199 144.487 60.5176 146.989C62.1153 149.47 62.9142 152.329 62.9142 155.566C62.9142 158.089 62.4097 160.307 61.4006 162.22C60.3915 164.112 59.004 165.668 57.2381 166.887C55.4932 168.085 53.496 168.937 51.2466 169.441V170.072C53.7063 170.177 56.0082 170.871 58.1526 172.153C60.3179 173.436 62.0733 175.233 63.4188 177.546C64.7642 179.837 65.4369 182.57 65.4369 185.744C65.4369 189.171 64.5855 192.23 62.8827 194.921C61.2009 197.591 58.7097 199.704 55.4091 201.259C52.1085 202.815 48.0406 203.593 43.2054 203.593H15.6131ZM29.2673 192.43H40.3989C44.204 192.43 46.979 191.704 48.7239 190.254C50.4688 188.782 51.3412 186.827 51.3412 184.389C51.3412 182.602 50.9102 181.025 50.0483 179.658C49.1864 178.292 47.9565 177.22 46.3588 176.442C44.7821 175.664 42.9006 175.275 40.7142 175.275H29.2673V192.43ZM29.2673 166.036H39.3898C41.2608 166.036 42.9216 165.71 44.3722 165.058C45.8438 164.385 47 163.439 47.8409 162.22C48.7028 161.001 49.1338 159.54 49.1338 157.837C49.1338 155.503 48.3034 153.622 46.6426 152.192C45.0028 150.763 42.6693 150.048 39.642 150.048H29.2673V166.036ZM96.1433 204.539C91.1609 204.539 86.8722 203.53 83.2773 201.512C79.7035 199.472 76.9495 196.592 75.0154 192.871C73.0813 189.129 72.1143 184.704 72.1143 179.595C72.1143 174.613 73.0813 170.24 75.0154 166.477C76.9495 162.714 79.6719 159.781 83.1827 157.679C86.7146 155.577 90.856 154.526 95.6072 154.526C98.8026 154.526 101.777 155.041 104.531 156.071C107.306 157.08 109.724 158.604 111.784 160.643C113.865 162.683 115.484 165.247 116.64 168.338C117.797 171.407 118.375 175.002 118.375 179.122V182.812H77.4751V174.487H105.73C105.73 172.553 105.309 170.839 104.468 169.347C103.627 167.854 102.461 166.687 100.968 165.846C99.4964 164.985 97.783 164.554 95.8279 164.554C93.7887 164.554 91.9808 165.027 90.4041 165.973C88.8484 166.898 87.6291 168.148 86.7461 169.725C85.8631 171.281 85.4112 173.015 85.3901 174.928V182.843C85.3901 185.24 85.8316 187.311 86.7146 189.056C87.6185 190.8 88.8904 192.146 90.5302 193.092C92.17 194.038 94.1146 194.511 96.364 194.511C97.8566 194.511 99.2231 194.301 100.463 193.88C101.704 193.46 102.765 192.829 103.648 191.988C104.531 191.147 105.204 190.117 105.667 188.898L118.091 189.718C117.46 192.703 116.167 195.31 114.212 197.538C112.278 199.746 109.776 201.469 106.707 202.71C103.659 203.929 100.138 204.539 96.1433 204.539ZM90.4671 148.913L97.1523 134.565H109.577L99.9589 148.913H90.4671ZM126.889 203.593V195.583L150.603 166.225V165.878H127.709V155.156H166.78V163.891L144.517 192.524V192.871H167.6V203.593H126.889ZM177.872 203.593V155.156H191.305V203.593H177.872ZM184.62 148.913C182.623 148.913 180.91 148.25 179.48 146.926C178.071 145.581 177.367 143.972 177.367 142.101C177.367 140.251 178.071 138.664 179.48 137.34C180.91 135.994 182.623 135.321 184.62 135.321C186.617 135.321 188.32 135.994 189.729 137.34C191.158 138.664 191.873 140.251 191.873 142.101C191.873 143.972 191.158 145.581 189.729 146.926C188.32 148.25 186.617 148.913 184.62 148.913ZM224.14 204.539C219.158 204.539 214.869 203.53 211.274 201.512C207.7 199.472 204.946 196.592 203.012 192.871C201.078 189.129 200.111 184.704 200.111 179.595C200.111 174.613 201.078 170.24 203.012 166.477C204.946 162.714 207.669 159.781 211.18 157.679C214.711 155.577 218.853 154.526 223.604 154.526C226.8 154.526 229.774 155.041 232.528 156.071C235.303 157.08 237.721 158.604 239.781 160.643C241.862 162.683 243.481 165.247 244.637 168.338C245.794 171.407 246.372 175.002 246.372 179.122V182.812H205.472V174.487H233.727C233.727 172.553 233.306 170.839 232.465 169.347C231.624 167.854 230.457 166.687 228.965 165.846C227.493 164.985 225.78 164.554 223.825 164.554C221.786 164.554 219.978 165.027 218.401 165.973C216.845 166.898 215.626 168.148 214.743 169.725C213.86 171.281 213.408 173.015 213.387 174.928V182.843C213.387 185.24 213.828 187.311 214.711 189.056C215.615 190.8 216.887 192.146 218.527 193.092C220.167 194.038 222.111 194.511 224.361 194.511C225.853 194.511 227.22 194.301 228.46 193.88C229.701 193.46 230.762 192.829 231.645 191.988C232.528 191.147 233.201 190.117 233.663 188.898L246.088 189.718C245.457 192.703 244.164 195.31 242.209 197.538C240.275 199.746 237.773 201.469 234.704 202.71C231.656 203.929 228.134 204.539 224.14 204.539ZM255.138 203.593V155.156H268.162V163.608H268.666C269.549 160.601 271.031 158.331 273.113 156.796C275.194 155.24 277.59 154.463 280.302 154.463C280.975 154.463 281.7 154.505 282.478 154.589C283.256 154.673 283.939 154.789 284.528 154.936V166.856C283.897 166.666 283.025 166.498 281.911 166.351C280.796 166.204 279.777 166.13 278.852 166.13C276.876 166.13 275.11 166.561 273.554 167.423C272.019 168.264 270.8 169.441 269.896 170.955C269.013 172.469 268.572 174.214 268.572 176.19V203.593H255.138Z" fill="white"/>
<path d="M104.383 259.593V217.903H108.189V256.173H128.057V259.593H104.383ZM144.607 260.305C142.72 260.305 140.997 259.939 139.436 259.206C137.876 258.46 136.634 257.388 135.711 255.99C134.788 254.578 134.327 252.868 134.327 250.86C134.327 249.313 134.619 248.01 135.202 246.951C135.786 245.893 136.614 245.024 137.686 244.346C138.758 243.667 140.027 243.131 141.492 242.738C142.958 242.344 144.573 242.039 146.337 241.822C148.088 241.605 149.567 241.415 150.775 241.252C151.996 241.089 152.926 240.831 153.564 240.478C154.201 240.125 154.52 239.555 154.52 238.768V238.035C154.52 235.905 153.883 234.229 152.607 233.007C151.345 231.772 149.526 231.155 147.151 231.155C144.899 231.155 143.06 231.65 141.635 232.641C140.223 233.632 139.233 234.799 138.663 236.142L135.223 234.901C135.928 233.191 136.905 231.827 138.154 230.809C139.402 229.778 140.8 229.038 142.347 228.59C143.894 228.129 145.462 227.898 147.05 227.898C148.244 227.898 149.486 228.054 150.775 228.366C152.078 228.678 153.285 229.221 154.398 229.995C155.511 230.755 156.414 231.82 157.106 233.191C157.798 234.548 158.144 236.271 158.144 238.361V259.593H154.52V254.646H154.296C153.862 255.569 153.218 256.465 152.363 257.333C151.508 258.202 150.436 258.914 149.146 259.471C147.857 260.027 146.344 260.305 144.607 260.305ZM145.095 256.987C147.022 256.987 148.692 256.56 150.103 255.705C151.514 254.85 152.6 253.717 153.36 252.305C154.134 250.88 154.52 249.313 154.52 247.603V243.084C154.249 243.342 153.794 243.572 153.157 243.776C152.532 243.979 151.806 244.163 150.978 244.326C150.164 244.475 149.35 244.604 148.536 244.712C147.721 244.821 146.989 244.916 146.337 244.997C144.573 245.214 143.067 245.554 141.818 246.015C140.57 246.477 139.613 247.114 138.948 247.929C138.283 248.729 137.95 249.761 137.95 251.023C137.95 252.923 138.629 254.395 139.986 255.44C141.343 256.471 143.046 256.987 145.095 256.987ZM168.536 259.593V217.903H172.18V234.29H172.505C172.912 233.353 173.496 232.39 174.256 231.399C175.029 230.409 176.04 229.581 177.289 228.916C178.551 228.237 180.139 227.898 182.052 227.898C184.617 227.898 186.87 228.576 188.811 229.934C190.751 231.277 192.264 233.163 193.35 235.593C194.436 238.008 194.979 240.824 194.979 244.041C194.979 247.27 194.436 250.1 193.35 252.529C192.278 254.958 190.772 256.851 188.831 258.209C186.904 259.566 184.665 260.244 182.113 260.244C180.213 260.244 178.626 259.905 177.35 259.226C176.088 258.548 175.07 257.713 174.297 256.723C173.523 255.718 172.926 254.741 172.505 253.791H172.057V259.593H168.536ZM172.118 243.979C172.118 246.504 172.492 248.743 173.238 250.697C173.998 252.638 175.084 254.164 176.495 255.277C177.92 256.376 179.643 256.926 181.666 256.926C183.742 256.926 185.499 256.356 186.938 255.216C188.376 254.063 189.469 252.509 190.215 250.555C190.962 248.6 191.335 246.409 191.335 243.979C191.335 241.577 190.962 239.413 190.215 237.486C189.482 235.559 188.397 234.032 186.958 232.906C185.52 231.766 183.755 231.196 181.666 231.196C179.63 231.196 177.9 231.745 176.475 232.845C175.063 233.93 173.984 235.437 173.238 237.364C172.492 239.277 172.118 241.482 172.118 243.979Z" fill="white"/>
</svg>
