<svg width="392" height="156" viewBox="0 0 392 156" fill="none" xmlns="http://www.w3.org/2000/svg">
<path d="M117.613 86V21.4182H143.471C148.222 21.4182 152.185 22.1224 155.359 23.531C158.534 24.9395 160.92 26.8946 162.518 29.3963C164.115 31.877 164.914 34.7361 164.914 37.9736C164.914 40.4963 164.41 42.7142 163.401 44.6273C162.391 46.5193 161.004 48.075 159.238 49.2943C157.493 50.4926 155.496 51.344 153.247 51.8486V52.4793C155.706 52.5844 158.008 53.2781 160.153 54.5605C162.318 55.8429 164.073 57.6403 165.419 59.9528C166.764 62.2443 167.437 64.9773 167.437 68.1517C167.437 71.5784 166.586 74.6372 164.883 77.3281C163.201 79.998 160.71 82.1108 157.409 83.6665C154.109 85.2222 150.041 86 145.205 86H117.613ZM131.267 74.8369H142.399C146.204 74.8369 148.979 74.1116 150.724 72.6611C152.469 71.1895 153.341 69.2344 153.341 66.7957C153.341 65.0088 152.91 63.4321 152.048 62.0656C151.186 60.6991 149.957 59.627 148.359 58.8491C146.782 58.0713 144.901 57.6824 142.714 57.6824H131.267V74.8369ZM131.267 48.4429H141.39C143.261 48.4429 144.922 48.117 146.372 47.4653C147.844 46.7926 149 45.8466 149.841 44.6273C150.703 43.408 151.134 41.9469 151.134 40.244C151.134 37.9105 150.303 36.029 148.643 34.5994C147.003 33.1699 144.669 32.4551 141.642 32.4551H131.267V48.4429ZM198.143 86.946C193.161 86.946 188.872 85.9369 185.277 83.9187C181.703 81.8795 178.95 78.9994 177.015 75.2784C175.081 71.5364 174.114 67.1111 174.114 62.0026C174.114 57.0202 175.081 52.6474 177.015 48.8844C178.95 45.1213 181.672 42.1886 185.183 40.0864C188.715 37.9841 192.856 36.933 197.607 36.933C200.803 36.933 203.777 37.448 206.531 38.4781C209.306 39.4872 211.724 41.0114 213.784 43.0506C215.865 45.0898 217.484 47.6545 218.64 50.7449C219.797 53.8142 220.375 57.4091 220.375 61.5295V65.219H179.475V56.894H207.73C207.73 54.9599 207.309 53.2466 206.468 51.754C205.627 50.2614 204.461 49.0946 202.968 48.2537C201.496 47.3918 199.783 46.9608 197.828 46.9608C195.789 46.9608 193.981 47.4338 192.404 48.3798C190.848 49.3048 189.629 50.5557 188.746 52.1324C187.863 53.6881 187.411 55.4224 187.39 57.3355V65.2506C187.39 67.6472 187.832 69.7179 188.715 71.4628C189.619 73.2077 190.89 74.5531 192.53 75.4991C194.17 76.4452 196.115 76.9182 198.364 76.9182C199.857 76.9182 201.223 76.708 202.463 76.2875C203.704 75.867 204.765 75.2364 205.648 74.3955C206.531 73.5545 207.204 72.5244 207.667 71.3051L220.091 72.125C219.46 75.1102 218.167 77.717 216.212 79.9455C214.278 82.1528 211.776 83.8767 208.707 85.117C205.659 86.3364 202.138 86.946 198.143 86.946ZM192.467 31.3199L199.152 16.9719H211.577L201.959 31.3199H192.467ZM228.889 86V77.9903L252.603 48.6321V48.2852H229.709V37.5636H268.78V46.2986L246.517 74.9315V75.2784H269.6V86H228.889ZM279.872 86V37.5636H293.305V86H279.872ZM286.62 31.3199C284.623 31.3199 282.91 30.6577 281.48 29.3332C280.071 27.9878 279.367 26.3795 279.367 24.5085C279.367 22.6585 280.071 21.0713 281.48 19.7469C282.91 18.4014 284.623 17.7287 286.62 17.7287C288.617 17.7287 290.32 18.4014 291.729 19.7469C293.158 21.0713 293.873 22.6585 293.873 24.5085C293.873 26.3795 293.158 27.9878 291.729 29.3332C290.32 30.6577 288.617 31.3199 286.62 31.3199ZM326.14 86.946C321.158 86.946 316.869 85.9369 313.274 83.9187C309.7 81.8795 306.946 78.9994 305.012 75.2784C303.078 71.5364 302.111 67.1111 302.111 62.0026C302.111 57.0202 303.078 52.6474 305.012 48.8844C306.946 45.1213 309.669 42.1886 313.18 40.0864C316.711 37.9841 320.853 36.933 325.604 36.933C328.8 36.933 331.774 37.448 334.528 38.4781C337.303 39.4872 339.721 41.0114 341.781 43.0506C343.862 45.0898 345.481 47.6545 346.637 50.7449C347.794 53.8142 348.372 57.4091 348.372 61.5295V65.219H307.472V56.894H335.727C335.727 54.9599 335.306 53.2466 334.465 51.754C333.624 50.2614 332.457 49.0946 330.965 48.2537C329.493 47.3918 327.78 46.9608 325.825 46.9608C323.786 46.9608 321.978 47.4338 320.401 48.3798C318.845 49.3048 317.626 50.5557 316.743 52.1324C315.86 53.6881 315.408 55.4224 315.387 57.3355V65.2506C315.387 67.6472 315.828 69.7179 316.711 71.4628C317.615 73.2077 318.887 74.5531 320.527 75.4991C322.167 76.4452 324.111 76.9182 326.361 76.9182C327.853 76.9182 329.22 76.708 330.46 76.2875C331.701 75.867 332.762 75.2364 333.645 74.3955C334.528 73.5545 335.201 72.5244 335.663 71.3051L348.088 72.125C347.457 75.1102 346.164 77.717 344.209 79.9455C342.275 82.1528 339.773 83.8767 336.704 85.117C333.656 86.3364 330.134 86.946 326.14 86.946ZM357.138 86V37.5636H370.162V46.0148H370.666C371.549 43.0085 373.031 40.7381 375.113 39.2034C377.194 37.6477 379.59 36.8699 382.302 36.8699C382.975 36.8699 383.7 36.9119 384.478 36.996C385.256 37.0801 385.939 37.1957 386.528 37.3429V49.2628C385.897 49.0736 385.025 48.9054 383.911 48.7582C382.796 48.6111 381.777 48.5375 380.852 48.5375C378.876 48.5375 377.11 48.9685 375.554 49.8304C374.019 50.6713 372.8 51.8486 371.896 53.3622C371.013 54.8759 370.572 56.6207 370.572 58.5969V86H357.138Z" fill="#B3B3B4"/>
<path d="M117.537 142V100.31H121.344V138.58H141.211V142H117.537ZM157.761 142.712C155.875 142.712 154.151 142.346 152.591 141.613C151.03 140.867 149.788 139.795 148.865 138.397C147.943 136.986 147.481 135.276 147.481 133.267C147.481 131.72 147.773 130.417 148.356 129.359C148.94 128.3 149.768 127.432 150.84 126.753C151.912 126.075 153.181 125.539 154.647 125.145C156.112 124.751 157.727 124.446 159.491 124.229C161.242 124.012 162.721 123.822 163.929 123.659C165.15 123.496 166.08 123.238 166.718 122.885C167.356 122.533 167.675 121.963 167.675 121.175V120.443C167.675 118.312 167.037 116.636 165.761 115.415C164.499 114.18 162.681 113.562 160.306 113.562C158.053 113.562 156.214 114.058 154.789 115.048C153.378 116.039 152.387 117.206 151.817 118.549L148.377 117.308C149.082 115.598 150.06 114.234 151.308 113.216C152.557 112.185 153.954 111.445 155.501 110.997C157.049 110.536 158.616 110.305 160.204 110.305C161.398 110.305 162.64 110.461 163.929 110.773C165.232 111.086 166.44 111.628 167.552 112.402C168.665 113.162 169.568 114.227 170.26 115.598C170.952 116.955 171.298 118.678 171.298 120.768V142H167.675V137.053H167.451C167.016 137.976 166.372 138.872 165.517 139.74C164.662 140.609 163.59 141.321 162.301 141.878C161.011 142.434 159.498 142.712 157.761 142.712ZM158.25 139.394C160.177 139.394 161.846 138.967 163.257 138.112C164.669 137.257 165.754 136.124 166.514 134.712C167.288 133.287 167.675 131.72 167.675 130.01V125.491C167.403 125.749 166.949 125.98 166.311 126.183C165.686 126.387 164.96 126.57 164.133 126.733C163.318 126.882 162.504 127.011 161.69 127.12C160.876 127.228 160.143 127.323 159.491 127.405C157.727 127.622 156.221 127.961 154.972 128.422C153.724 128.884 152.767 129.522 152.102 130.336C151.437 131.136 151.105 132.168 151.105 133.43C151.105 135.33 151.783 136.802 153.14 137.847C154.497 138.879 156.2 139.394 158.25 139.394ZM181.69 142V100.31H185.334V116.697H185.659C186.067 115.761 186.65 114.797 187.41 113.806C188.184 112.816 189.195 111.988 190.443 111.323C191.705 110.644 193.293 110.305 195.207 110.305C197.771 110.305 200.024 110.984 201.965 112.341C203.905 113.684 205.419 115.571 206.504 118C207.59 120.415 208.133 123.231 208.133 126.448C208.133 129.678 207.59 132.507 206.504 134.936C205.432 137.366 203.926 139.259 201.985 140.616C200.058 141.973 197.819 142.651 195.268 142.651C193.368 142.651 191.78 142.312 190.504 141.634C189.242 140.955 188.224 140.12 187.451 139.13C186.677 138.126 186.08 137.148 185.659 136.198H185.212V142H181.69ZM185.273 126.387C185.273 128.911 185.646 131.15 186.392 133.104C187.152 135.045 188.238 136.572 189.649 137.684C191.074 138.784 192.798 139.333 194.82 139.333C196.896 139.333 198.654 138.763 200.092 137.623C201.531 136.47 202.623 134.916 203.369 132.962C204.116 131.008 204.489 128.816 204.489 126.387C204.489 123.985 204.116 121.82 203.369 119.893C202.637 117.966 201.551 116.439 200.112 115.313C198.674 114.173 196.91 113.603 194.82 113.603C192.784 113.603 191.054 114.153 189.629 115.252C188.218 116.337 187.139 117.844 186.392 119.771C185.646 121.684 185.273 123.89 185.273 126.387Z" fill="#B3B3B4"/>
<path d="M22.0784 21.1689C46.8497 21.6109 85.2115 15.0498 86.2454 53.877C86.5429 64.943 82.8409 71.154 75.8704 78.8193C86.0938 85.2639 91.1478 93.76 91.2366 106.744C91.3932 115.557 88.7883 124.163 82.8098 130.433C69.913 143.95 49.3095 141.888 32.8079 141.887L2.67505 141.913C2.46985 133.386 2.40436 128.174 3.86841 119.803C6.69838 104.661 15.8273 91.7572 28.6321 84.7998C34.6262 81.5295 41.3516 79.3347 47.8313 76.9033C56.1594 73.7786 67.0512 70.1741 69.4114 59.5332C70.44 53.935 69.1558 46.7003 65.2502 42.6826C59.0263 36.2712 49.8623 36.9233 41.8997 36.9053C34.1935 36.8884 26.5064 36.9399 18.8118 36.9736L18.7971 78.9678C9.2029 85.1328 9.2566 87.4848 2.5979 95.5352L2.58228 21.2598C9.02789 21.1507 15.3237 21.0486 22.0784 21.1689ZM61.2815 88.6318C40.4482 96.2263 23.6322 98.6592 19.4211 126.096L33.2424 126.213C42.7035 126.275 53.8254 127.067 63.1038 124.22C65.2862 123.549 67.5577 121.876 69.1868 120.21C78.1518 111.024 75.3484 90.3497 61.6477 88.5967C61.5224 88.6085 61.4016 88.62 61.2815 88.6318Z" fill="#B3B3B4"/>
</svg>
