<svg width="213" height="236" viewBox="0 0 213 236" fill="none" xmlns="http://www.w3.org/2000/svg">
<rect width="212.919" height="235.593" rx="6" fill="black"/>
<path d="M82.6857 64.1504C106.407 64.5434 143.142 58.7086 144.132 93.2334C144.417 103.073 140.872 108.596 134.197 115.412C143.987 121.143 148.827 128.698 148.912 140.243C149.062 148.079 146.567 155.732 140.842 161.307C128.492 173.326 108.762 171.493 92.9601 171.492L64.1046 171.515C63.9081 163.932 63.8462 159.298 65.2482 151.854C67.9582 138.391 76.7002 126.917 88.9621 120.73C94.702 117.822 101.142 115.871 107.347 113.709C115.322 110.93 125.752 107.725 128.012 98.2627C128.997 93.2847 127.767 86.8517 124.027 83.2793C118.068 77.5783 109.292 78.1585 101.667 78.1425C94.2876 78.1275 86.9263 78.1731 79.5578 78.2031L79.5431 115.544C70.3558 121.026 70.4078 123.118 64.0314 130.276L64.0158 64.2304C70.1882 64.1334 76.2173 64.0434 82.6857 64.1504ZM120.227 124.138C100.277 130.891 84.1742 133.054 80.1417 157.45L93.3771 157.555C102.437 157.61 113.087 158.314 121.972 155.782C124.062 155.186 126.237 153.698 127.797 152.217C136.382 144.048 133.697 125.665 120.577 124.106C120.457 124.117 120.342 124.127 120.227 124.138Z" fill="#05EEFD"/>
</svg>
